<svg id="Layer_1" data-name="Layer 1" xmlns="http://www.w3.org/2000/svg" viewBox="0 0 23.78 9"><defs><style>.cls-1{fill:#97d2b4;stroke:#97d2b4;}.cls-1,.cls-2{stroke-linecap:round;stroke-linejoin:round;stroke-width:0.25px;}.cls-2{fill:#7475b7;stroke:#7475b7;}</style></defs><title>logo</title><path class="cls-1" d="M75.19,206.5l3.12-3.12.18.18-3,3,3,3-.18.18-3.11-3.07Z" transform="translate(-75.07 -202.07)"/><path class="cls-1" d="M80.23,210.65h-.12l-.1,0h0l1.62-8h.24Z" transform="translate(-75.07 -202.07)"/><path class="cls-2" d="M87.53,202.23h.32l-2.22,3.58,0,0,0,0,2.54,5h-.29L85.49,206l-1.27,2.08v2.8H84v-8.7h.25v5.45Z" transform="translate(-75.07 -202.07)"/><path class="cls-2" d="M92.78,202.83a2.52,2.52,0,0,1,.43,1.48,2.72,2.72,0,0,1-.09.71,2.4,2.4,0,0,1-.24.59,1.68,1.68,0,0,1-.34.43,1.19,1.19,0,0,1-.41.24,1.57,1.57,0,0,1,.55.2,1.39,1.39,0,0,1,.46.41,2.59,2.59,0,0,1,.36.77,3.28,3.28,0,0,1,.12.89,3,3,0,0,1-.22,1.25,1.92,1.92,0,0,1-.55.72,1.79,1.79,0,0,1-.72.34,3.55,3.55,0,0,1-.75.08H90v-8.75h1.51a1.54,1.54,0,0,1,.79.17A1.57,1.57,0,0,1,92.78,202.83Zm-2.53,3.34h1.36a1.06,1.06,0,0,0,.55-.15,1.4,1.4,0,0,0,.43-.41,2,2,0,0,0,.28-.6,2.6,2.6,0,0,0,.1-.71,2.46,2.46,0,0,0-.1-.71,2,2,0,0,0-.28-.59,1.47,1.47,0,0,0-.42-.4,1,1,0,0,0-.53-.15H90.25Zm1.13,4.52a2.42,2.42,0,0,0,1-.17A1.57,1.57,0,0,0,93,210a1.73,1.73,0,0,0,.32-.68,3.21,3.21,0,0,0,.08-.81,2.43,2.43,0,0,0-.5-1.62,1.94,1.94,0,0,0-1.49-.52H90.25v4.27Z" transform="translate(-75.07 -202.07)"/><path class="cls-1" d="M98.72,206.68l-3.11,3.07-.18-.18,3-3-3-3,.18-.18,3.12,3.12Z" transform="translate(-75.07 -202.07)"/></svg>